<svg width="140" height="126" viewBox="0 0 140 126" fill="none" xmlns="http://www.w3.org/2000/svg">
<rect x="2.5" y="2.5" width="135" height="121" rx="12.5" stroke="var(--form-gray)" stroke-width="5"/>
<path d="M94.5924 42.0333H82.1857L80.9791 38.2439C80.2193 35.8579 78.0947 34.2549 75.6924 34.2549H63.7109C61.3086 34.2549 59.184 35.8579 58.4243 38.2439L57.2176 42.0333H54.2223V38.7923C54.2223 36.2904 52.278 34.2549 49.8881 34.2549H47.4114C45.0215 34.2549 43.0772 36.2904 43.0772 38.7923V42.2682C40.1587 43.073 38 45.8589 38 49.1635V82.8698C38 86.8014 41.0554 90 44.8109 90H94.5924C98.3479 90 101.403 86.8014 101.403 82.8698V49.1635C101.403 45.2319 98.3479 42.0333 94.5924 42.0333ZM46.7923 38.7923C46.7923 38.4349 47.07 38.1441 47.4114 38.1441H49.8881C50.2295 38.1441 50.5073 38.4349 50.5073 38.7923V42.0333H46.7923V38.7923ZM97.6883 82.8698C97.6883 84.6569 96.2994 86.1108 94.5924 86.1108H44.8109C43.1038 86.1108 41.715 84.6569 41.715 82.8698V49.1635C41.715 47.3764 43.1038 45.9225 44.8109 45.9225H58.5565C59.356 45.9225 60.0658 45.3869 60.3187 44.5927L61.9486 39.4738C62.202 38.6785 62.9101 38.1441 63.7109 38.1441H75.6924C76.4932 38.1441 77.2014 38.6785 77.4546 39.4737L79.0845 44.5927C79.3375 45.3869 80.0473 45.9225 80.8468 45.9225H94.5924C96.2994 45.9225 97.6883 47.3764 97.6883 49.1635V82.8698Z" fill="var(--form-gray)"/>
<path d="M69.7016 82.2218C60.4834 82.2218 52.9839 74.3707 52.9839 64.7205C52.9839 55.0703 60.4834 47.2192 69.7016 47.2192C78.9197 47.2192 86.4192 55.0703 86.4192 64.7205C86.4192 74.3707 78.9197 82.2218 69.7016 82.2218ZM69.7016 51.1084C62.5319 51.1084 56.6989 57.2148 56.6989 64.7205C56.6989 72.2262 62.5319 78.3327 69.7016 78.3327C76.8712 78.3327 82.7042 72.2262 82.7042 64.7205C82.7042 57.2148 76.8712 51.1084 69.7016 51.1084Z" fill="var(--form-gray)"/>
<path d="M69.7016 74.4432C64.5805 74.4432 60.4141 70.0815 60.4141 64.7202C60.4141 59.3589 64.5805 54.9972 69.7016 54.9972C74.8228 54.9972 78.9892 59.3589 78.9892 64.7202C78.9892 70.0815 74.8228 74.4432 69.7016 74.4432ZM69.7016 58.8864C66.6289 58.8864 64.1291 61.5034 64.1291 64.7202C64.1291 67.937 66.6289 70.554 69.7016 70.554C72.7743 70.554 75.2742 67.937 75.2742 64.7202C75.2742 61.5034 72.7743 58.8864 69.7016 58.8864Z" fill="var(--form-gray)"/>
<path d="M32.5807 28.9122L35.4597 26.9799L31.7555 22.729L37 21.271L36.0098 18.2848L30.8203 20.463L31.3154 15H27.813L28.2164 20.4454L23.1369 18.3199L22 21.3061L27.3912 22.7466L23.5954 27.0853L26.4743 29L29.5367 24.0991L32.5807 28.9122Z" fill="var(--form-gray)"/>
</svg>
