<svg width="140" height="126" viewBox="0 0 140 126" fill="none" xmlns="http://www.w3.org/2000/svg">
<rect x="2.5" y="2.5" width="135" height="121" rx="12.5" stroke="black" stroke-width="5"/>
<path d="M101.175 47.3852C100.552 46.9819 99.7734 46.945 99.1182 47.2878L85.2688 54.5382V49.2679C85.2688 45.6021 82.4302 42.6304 78.9285 42.6304H49.3403C45.8387 42.6304 43 45.6021 43 49.2679V75.8181C43 79.4839 45.8387 82.4556 49.3403 82.4556H78.9285C82.4302 82.4556 85.2688 79.4839 85.2688 75.8181V70.5479L99.1182 77.8094C100.162 78.3555 101.432 77.9123 101.954 76.8192C102.102 76.5084 102.178 76.1654 102.176 75.8181V49.2679C102.177 48.501 101.798 47.7886 101.175 47.3852ZM81.042 75.8181C81.042 77.0401 80.0958 78.0307 78.9285 78.0307H49.3403C48.1731 78.0307 47.2268 77.0401 47.2268 75.8181V49.2679C47.2268 48.0459 48.1731 47.0554 49.3403 47.0554H78.9285C80.0958 47.0554 81.042 48.0459 81.042 49.2679V75.8181ZM97.9495 72.2384L85.2688 65.6008V59.4855L97.9495 52.8479V72.2384Z" fill="black"/>
<path d="M64.1345 53.6927C59.4655 53.6927 55.6807 57.6551 55.6807 62.5429C55.6807 67.4307 59.4655 71.3931 64.1345 71.3931C68.8034 71.3931 72.5883 67.4307 72.5883 62.5429C72.5883 57.6551 68.8033 53.6927 64.1345 53.6927ZM64.1345 66.9679C61.8001 66.9679 59.9076 64.9868 59.9076 62.5429C59.9076 60.0991 61.8001 58.1179 64.1345 58.1179C66.4689 58.1179 68.3613 60.0991 68.3613 62.5429C68.3613 64.9868 66.4689 66.9679 64.1345 66.9679Z" fill="black"/>
<path className="d-none" d="M32.5807 28.9122L35.4597 26.9799L31.7555 22.729L37 21.271L36.0098 18.2848L30.8203 20.463L31.3154 15H27.813L28.2164 20.4454L23.1369 18.3199L22 21.3061L27.3912 22.7466L23.5954 27.0853L26.4743 29L29.5367 24.0991L32.5807 28.9122Z" fill="black"/>
</svg>
