<svg width="160" height="36" viewBox="0 0 160 36" fill="none" xmlns="http://www.w3.org/2000/svg">
<path d="M8.16406 3.93237H5.80664V30.2791H8.16406V33.9812H0.992188V0.230225H8.16406V3.93237ZM9.82422 19.239C9.82422 16.45 10.4772 14.2253 11.7832 12.5652C13.1003 10.894 14.8434 10.0583 17.0127 10.0583C19.0602 10.0583 20.6706 10.7722 21.8438 12.2L22.0264 10.3904H25.6621V27.8054C25.6621 30.1628 24.9261 32.0222 23.4541 33.3835C21.9932 34.7449 20.0176 35.4255 17.5273 35.4255C16.2103 35.4255 14.9209 35.1488 13.6592 34.5955C12.4085 34.0531 11.4567 33.3393 10.8037 32.4539L12.7129 30.03C13.9525 31.502 15.4798 32.238 17.2949 32.238C18.6341 32.238 19.6911 31.8728 20.4658 31.1423C21.2406 30.4229 21.6279 29.3604 21.6279 27.9548V26.7429C20.4658 28.0378 18.9163 28.6853 16.9795 28.6853C14.8766 28.6853 13.1556 27.8497 11.8164 26.1785C10.4883 24.5072 9.82422 22.1941 9.82422 19.239ZM13.8418 19.5876C13.8418 21.3917 14.207 22.8139 14.9375 23.8542C15.679 24.8835 16.7028 25.3982 18.0088 25.3982C19.6357 25.3982 20.8421 24.7009 21.6279 23.3064V15.4041C20.8643 14.0427 19.6689 13.3621 18.042 13.3621C16.7139 13.3621 15.679 13.8878 14.9375 14.9392C14.207 15.9906 13.8418 17.5401 13.8418 19.5876ZM39.2256 14.0759C38.6943 13.9874 38.1465 13.9431 37.582 13.9431C35.7337 13.9431 34.4886 14.6514 33.8467 16.0681V28.3533H29.8125V10.3904H33.6641L33.7637 12.3992C34.7376 10.8386 36.0879 10.0583 37.8145 10.0583C38.39 10.0583 38.8659 10.1358 39.2422 10.2908L39.2256 14.0759ZM40.4209 19.2058C40.4209 17.446 40.7695 15.8634 41.4668 14.4578C42.1641 13.0411 43.1436 11.9565 44.4053 11.2039C45.667 10.4402 47.1169 10.0583 48.7549 10.0583C51.1787 10.0583 53.1432 10.8386 54.6484 12.3992C56.1647 13.9597 56.9837 16.0294 57.1055 18.6082L57.1221 19.5544C57.1221 21.3253 56.779 22.908 56.0928 24.3025C55.4176 25.697 54.4437 26.7761 53.1709 27.5398C51.9092 28.3035 50.4482 28.6853 48.7881 28.6853C46.2536 28.6853 44.2227 27.8442 42.6953 26.1619C41.179 24.4685 40.4209 22.2162 40.4209 19.405V19.2058ZM44.4551 19.5544C44.4551 21.4028 44.8369 22.8526 45.6006 23.9041C46.3643 24.9444 47.4268 25.4646 48.7881 25.4646C50.1494 25.4646 51.2064 24.9333 51.959 23.8708C52.7227 22.8083 53.1045 21.2533 53.1045 19.2058C53.1045 17.3907 52.7116 15.9519 51.9258 14.8894C51.151 13.8269 50.0941 13.2957 48.7549 13.2957C47.4378 13.2957 46.3919 13.8214 45.6172 14.8728C44.8424 15.9132 44.4551 17.4737 44.4551 19.5544ZM71.416 26.5935C70.2318 27.988 68.5495 28.6853 66.3691 28.6853C64.4212 28.6853 62.9437 28.1153 61.9365 26.9753C60.9404 25.8354 60.4424 24.1863 60.4424 22.0281V10.3904H64.4766V21.9783C64.4766 24.2582 65.4229 25.3982 67.3154 25.3982C69.2744 25.3982 70.597 24.6954 71.2832 23.2898V10.3904H75.3174V28.3533H71.5156L71.416 26.5935ZM95.1562 19.5544C95.1562 22.3324 94.5254 24.5515 93.2637 26.2117C92.002 27.8608 90.3086 28.6853 88.1836 28.6853C86.2135 28.6853 84.6364 28.0378 83.4521 26.7429V35.2595H79.418V10.3904H83.1367L83.3027 12.2166C84.487 10.7778 86.0973 10.0583 88.1338 10.0583C90.3252 10.0583 92.0407 10.8774 93.2803 12.5154C94.5309 14.1423 95.1562 16.4057 95.1562 19.3054V19.5544ZM91.1387 19.2058C91.1387 17.4128 90.779 15.9906 90.0596 14.9392C89.3512 13.8878 88.333 13.3621 87.0049 13.3621C85.3558 13.3621 84.1715 14.0427 83.4521 15.4041V23.3728C84.1826 24.7673 85.3779 25.4646 87.0381 25.4646C88.3219 25.4646 89.3236 24.95 90.043 23.9207C90.7734 22.8803 91.1387 21.3087 91.1387 19.2058ZM114.763 19.5212C114.763 22.4653 114.154 24.7286 112.937 26.3113C111.719 27.894 110.004 28.6853 107.79 28.6853C105.964 28.6853 104.492 27.9604 103.374 26.5105L103.142 28.3533H98.1279V2.85327H103.723V11.8347C104.763 10.6505 106.108 10.0583 107.757 10.0583C109.993 10.0583 111.719 10.8608 112.937 12.4656C114.154 14.0704 114.763 16.3282 114.763 19.239V19.5212ZM109.151 19.1726C109.151 17.446 108.919 16.2175 108.454 15.4871C108 14.7455 107.298 14.3748 106.346 14.3748C105.084 14.3748 104.21 14.8562 103.723 15.8191V22.9578C104.199 23.9096 105.084 24.3855 106.379 24.3855C107.696 24.3855 108.532 23.7436 108.886 22.4597C109.063 21.8289 109.151 20.7332 109.151 19.1726ZM127.944 26.4109C126.76 27.9272 125.161 28.6853 123.146 28.6853C121.176 28.6853 119.682 28.1153 118.664 26.9753C117.657 25.8243 117.153 24.1752 117.153 22.0281V10.3904H122.748V22.0613C122.748 23.5997 123.495 24.3689 124.989 24.3689C126.273 24.3689 127.186 23.9096 127.729 22.991V10.3904H133.356V28.3533H128.11L127.944 26.4109ZM143.616 20.5173L146.604 10.3904H152.598L145.276 31.3582L144.961 32.1218C143.921 34.446 142.083 35.6082 139.449 35.6082C138.719 35.6082 137.95 35.4975 137.142 35.2761V31.2751H137.872C138.658 31.2751 139.256 31.1589 139.665 30.9265C140.086 30.7052 140.396 30.3012 140.595 29.7146L141.043 28.5193L134.801 10.3904H140.777L143.616 20.5173ZM152.714 0.230225H159.886V33.9812H152.714V30.2791H155.088V3.93237H152.714V0.230225Z" fill="white"/>
</svg>
