<svg width="228" height="56" viewBox="0 0 228 56" fill="none" xmlns="http://www.w3.org/2000/svg">
<path d="M70.8086 13.5791H68.4512V39.9258H70.8086V43.6279H63.6367V9.87695H70.8086V13.5791ZM72.4688 28.8857C72.4688 26.0967 73.1217 23.8721 74.4277 22.2119C75.7448 20.5407 77.488 19.7051 79.6572 19.7051C81.7048 19.7051 83.3151 20.4189 84.4883 21.8467L84.6709 20.0371H88.3066V37.4521C88.3066 39.8096 87.5706 41.6689 86.0986 43.0303C84.6377 44.3916 82.6621 45.0723 80.1719 45.0723C78.8548 45.0723 77.5654 44.7956 76.3037 44.2422C75.0531 43.6999 74.1012 42.986 73.4482 42.1006L75.3574 39.6768C76.597 41.1488 78.1243 41.8848 79.9395 41.8848C81.2786 41.8848 82.3356 41.5195 83.1104 40.7891C83.8851 40.0697 84.2725 39.0072 84.2725 37.6016V36.3896C83.1104 37.6846 81.5609 38.332 79.624 38.332C77.5212 38.332 75.8001 37.4964 74.4609 35.8252C73.1328 34.154 72.4688 31.8408 72.4688 28.8857ZM76.4863 29.2344C76.4863 31.0384 76.8516 32.4606 77.582 33.501C78.3236 34.5303 79.3473 35.0449 80.6533 35.0449C82.2803 35.0449 83.4867 34.3477 84.2725 32.9531V25.0508C83.5088 23.6895 82.3135 23.0088 80.6865 23.0088C79.3584 23.0088 78.3236 23.5345 77.582 24.5859C76.8516 25.6374 76.4863 27.1868 76.4863 29.2344ZM101.87 23.7227C101.339 23.6341 100.791 23.5898 100.227 23.5898C98.3783 23.5898 97.1331 24.2982 96.4912 25.7148V38H92.457V20.0371H96.3086L96.4082 22.0459C97.3822 20.4854 98.7324 19.7051 100.459 19.7051C101.035 19.7051 101.51 19.7826 101.887 19.9375L101.87 23.7227ZM103.065 28.8525C103.065 27.0928 103.414 25.5101 104.111 24.1045C104.809 22.6878 105.788 21.6032 107.05 20.8506C108.312 20.0869 109.761 19.7051 111.399 19.7051C113.823 19.7051 115.788 20.4854 117.293 22.0459C118.809 23.6064 119.628 25.6761 119.75 28.2549L119.767 29.2012C119.767 30.972 119.424 32.5547 118.737 33.9492C118.062 35.3438 117.088 36.4229 115.815 37.1865C114.554 37.9502 113.093 38.332 111.433 38.332C108.898 38.332 106.867 37.4909 105.34 35.8086C103.824 34.1152 103.065 31.863 103.065 29.0518V28.8525ZM107.1 29.2012C107.1 31.0495 107.481 32.4993 108.245 33.5508C109.009 34.5911 110.071 35.1113 111.433 35.1113C112.794 35.1113 113.851 34.5801 114.604 33.5176C115.367 32.4551 115.749 30.9001 115.749 28.8525C115.749 27.0374 115.356 25.5986 114.57 24.5361C113.796 23.4736 112.739 22.9424 111.399 22.9424C110.082 22.9424 109.036 23.4681 108.262 24.5195C107.487 25.5599 107.1 27.1204 107.1 29.2012ZM134.061 36.2402C132.876 37.6348 131.194 38.332 129.014 38.332C127.066 38.332 125.588 37.762 124.581 36.6221C123.585 35.4821 123.087 33.833 123.087 31.6748V20.0371H127.121V31.625C127.121 33.9049 128.067 35.0449 129.96 35.0449C131.919 35.0449 133.242 34.3421 133.928 32.9365V20.0371H137.962V38H134.16L134.061 36.2402ZM157.801 29.2012C157.801 31.9792 157.17 34.1982 155.908 35.8584C154.646 37.5075 152.953 38.332 150.828 38.332C148.858 38.332 147.281 37.6846 146.097 36.3896V44.9062H142.062V20.0371H145.781L145.947 21.8633C147.132 20.4245 148.742 19.7051 150.778 19.7051C152.97 19.7051 154.685 20.5241 155.925 22.1621C157.175 23.7891 157.801 26.0524 157.801 28.9521V29.2012ZM153.783 28.8525C153.783 27.0596 153.424 25.6374 152.704 24.5859C151.996 23.5345 150.978 23.0088 149.649 23.0088C148 23.0088 146.816 23.6895 146.097 25.0508V33.0195C146.827 34.4141 148.022 35.1113 149.683 35.1113C150.966 35.1113 151.968 34.5967 152.688 33.5674C153.418 32.527 153.783 30.9554 153.783 28.8525ZM177.407 29.168C177.407 32.112 176.799 34.3753 175.581 35.958C174.364 37.5407 172.648 38.332 170.435 38.332C168.608 38.332 167.136 37.6071 166.019 36.1572L165.786 38H160.772V12.5H166.367V21.4814C167.408 20.2972 168.752 19.7051 170.401 19.7051C172.637 19.7051 174.364 20.5075 175.581 22.1123C176.799 23.7171 177.407 25.9749 177.407 28.8857V29.168ZM171.796 28.8193C171.796 27.0928 171.563 25.8643 171.099 25.1338C170.645 24.3923 169.942 24.0215 168.99 24.0215C167.729 24.0215 166.854 24.5029 166.367 25.4658V32.6045C166.843 33.5563 167.729 34.0322 169.023 34.0322C170.34 34.0322 171.176 33.3903 171.53 32.1064C171.707 31.4756 171.796 30.3799 171.796 28.8193ZM190.589 36.0576C189.405 37.5739 187.805 38.332 185.791 38.332C183.821 38.332 182.327 37.762 181.309 36.6221C180.301 35.471 179.798 33.8219 179.798 31.6748V20.0371H185.393V31.708C185.393 33.2464 186.14 34.0156 187.634 34.0156C188.918 34.0156 189.831 33.5563 190.373 32.6377V20.0371H196.001V38H190.755L190.589 36.0576ZM206.261 30.1641L209.249 20.0371H215.242L207.921 41.0049L207.605 41.7686C206.565 44.0928 204.728 45.2549 202.094 45.2549C201.363 45.2549 200.594 45.1442 199.786 44.9229V40.9219H200.517C201.302 40.9219 201.9 40.8057 202.31 40.5732C202.73 40.3519 203.04 39.9479 203.239 39.3613L203.688 38.166L197.445 20.0371H203.422L206.261 30.1641ZM215.358 9.87695H222.53V43.6279H215.358V39.9258H217.732V13.5791H215.358V9.87695Z" fill="white"/>
<path d="M39.1998 38.7593L36.9909 12.3118C36.8538 10.6078 35.3363 9.27356 33.538 9.27356H29.1742V15.4163C29.1742 16.177 28.526 16.7928 27.7254 16.7928C26.9256 16.7928 26.2765 16.177 26.2765 15.4163V9.27356H12.9476V15.4163C12.9476 16.177 12.2985 16.7928 11.4988 16.7928C10.6981 16.7928 10.05 16.177 10.05 15.4163V9.27356H5.68618C3.88778 9.27356 2.37036 10.6078 2.23325 12.3082L0.0233462 38.763C-0.147576 40.8818 0.626065 42.9906 2.14533 44.5487C3.66469 46.1068 5.81856 47.0015 8.05455 47.0015H31.1697C33.4057 47.0015 35.5595 46.1068 37.0789 44.5486C38.5982 42.9905 39.3718 40.8817 39.1998 38.7593Z" fill="white"/>
<path d="M19.6011 0C14.3284 0 10.0391 4.07614 10.0391 9.08557V9.27183H12.9367V9.08557C12.9367 5.5939 15.9261 2.75289 19.6012 2.75289C23.2764 2.75289 26.2657 5.5939 26.2657 9.08557V9.27183H29.1633V9.08557C29.1632 4.07614 24.8738 0 19.6011 0Z" fill="white"/>
<path d="M10.1055 21.7104C10.1055 21.1994 10.5197 20.7852 11.0307 20.7852H17.0448C17.5558 20.7852 17.97 21.1994 17.97 21.7104V27.7245C17.97 28.2355 17.5558 28.6497 17.0448 28.6497H11.0307C10.5197 28.6497 10.1055 28.2355 10.1055 27.7245V21.7104Z" fill="black"/>
<path d="M21.3438 21.7104C21.3438 21.1994 21.758 20.7852 22.269 20.7852H28.2831C28.7941 20.7852 29.2083 21.1994 29.2083 21.7104V27.7245C29.2083 28.2355 28.7941 28.6497 28.2831 28.6497H22.269C21.758 28.6497 21.3438 28.2355 21.3438 27.7245V21.7104Z" fill="black"/>
<path d="M10.1055 32.7573C10.1055 32.2463 10.5197 31.832 11.0307 31.832H17.0448C17.5558 31.832 17.97 32.2463 17.97 32.7573V38.7713C17.97 39.2823 17.5558 39.6966 17.0448 39.6966H11.0307C10.5197 39.6966 10.1055 39.2823 10.1055 38.7713V32.7573Z" fill="black"/>
<path d="M21.3438 32.7573C21.3438 32.2463 21.758 31.832 22.269 31.832H28.2831C28.7941 31.832 29.2083 32.2463 29.2083 32.7573V38.7713C29.2083 39.2823 28.7941 39.6966 28.2831 39.6966H22.269C21.758 39.6966 21.3438 39.2823 21.3438 38.7713V32.7573Z" fill="black"/>
</svg>
