<svg width="20" height="20" viewBox="0 0 20 20" fill="none" xmlns="http://www.w3.org/2000/svg">
<path d="M0.395622 18.8559C0.64216 18.7124 2.14322 17.7828 2.94633 16.1021C1.07063 14.3482 0.00378799 11.9084 0.00378799 9.41137C0.00378799 4.24355 4.50992 0 10.0009 0C15.4919 0 19.998 4.24355 19.998 9.41137C19.998 14.5792 15.4919 18.8227 10.0009 18.8227C9.26381 18.8227 8.47205 18.7536 7.37967 18.5241C4.50856 20.0498 1.93156 20.0069 0.951073 19.9914C0.514593 19.986 0.197714 20.0648 0.0346451 19.6139C-0.0757351 19.3114 0.0875301 18.962 0.395622 18.8559ZM8.82936 14.1366C8.82936 14.7835 9.35388 15.3081 10.0009 15.3081C10.648 15.3081 11.1725 14.7835 11.1725 14.1366V9.41137C11.1725 8.76433 10.648 8.23981 10.0009 8.23981C9.35388 8.23981 8.82936 8.76433 8.82936 9.41137V14.1366ZM10.0009 6.44347C10.648 6.44347 11.1725 5.91888 11.1725 5.27191C11.1725 4.62487 10.648 4.10036 10.0009 4.10036C9.35388 4.10036 8.82936 4.62487 8.82936 5.27191C8.82936 5.91892 9.35388 6.44347 10.0009 6.44347Z" fill="white"/>
</svg>
