<svg width="24" height="16" viewBox="0 0 24 16" fill="none" xmlns="http://www.w3.org/2000/svg">
<path d="M16.1396 8.03162L23.9008 12.9381V2.91797L16.1396 8.03162Z" fill="white"/>
<path d="M0.878906 2.91797V12.9381L8.64003 8.03162L0.878906 2.91797Z" fill="white"/>
<path d="M22.4614 0H2.31755C1.59957 0 1.02979 0.53525 0.921875 1.22446L12.3895 8.77982L23.857 1.22446C23.7491 0.53525 23.1793 0 22.4614 0Z" fill="white"/>
<path d="M14.8212 8.90067L12.7852 10.2417C12.6643 10.3208 12.5276 10.3597 12.3895 10.3597C12.2514 10.3597 12.1147 10.3208 11.9938 10.2417L9.95786 8.89923L0.924805 14.6129C1.0356 15.2963 1.6025 15.8273 2.3176 15.8273H22.4614C23.1765 15.8273 23.7434 15.2963 23.8542 14.6129L14.8212 8.90067Z" fill="white"/>
</svg>
