<svg width="19" height="19" viewBox="0 0 19 19" fill="none" xmlns="http://www.w3.org/2000/svg">
<path d="M16.7865 12C15.6623 12 14.5611 11.8244 13.5174 11.48C13.0081 11.3045 12.4297 11.4397 12.0949 11.7812L10.0259 13.3438C7.65177 12.0767 6.13235 10.5582 4.88249 8.2014L6.40285 6.18127C6.78558 5.79854 6.92277 5.23833 6.75874 4.71365C6.41148 3.66329 6.235 2.56114 6.235 1.43884C6.235 0.645546 5.58946 0 4.79616 0H1.43884C0.645546 0 0 0.645546 0 1.43884C0 10.6944 7.5309 18.2253 16.7865 18.2253C17.5798 18.2253 18.2253 17.5798 18.2253 16.7865V13.4388C18.2253 12.6455 17.5798 12 16.7865 12Z" fill="white"/>
</svg>
